<svg xmlns="http://www.w3.org/2000/svg" viewBox="0 0 512 512">
  <defs>
    <linearGradient id="bg" x1="0" y1="0" x2="0" y2="1">
      <stop offset="0" stop-color="#2B1B5A"/><stop offset="1" stop-color="#4A2FBD"/>
    </linearGradient>
    <linearGradient id="gold" x1="0" y1="0" x2="0" y2="1">
      <stop offset="0" stop-color="#FFF6A8"/><stop offset=".45" stop-color="#FFD500"/><stop offset="1" stop-color="#E09A00"/>
    </linearGradient>
  </defs>
  <rect width="512" height="512" fill="url(#bg)"/>
  <!-- Star kept inside the maskable safe zone (central 80%) -->
  <g transform="translate(256 262) scale(2.9) translate(-50 -50)">
    <polygon points="50,4 62,37 97,38 69,59 79,94 50,74 21,94 31,59 3,38 38,37" fill="#12082B" transform="translate(0 6)" stroke="#12082B" stroke-width="8" stroke-linejoin="round"/>
    <polygon points="50,4 62,37 97,38 69,59 79,94 50,74 21,94 31,59 3,38 38,37" fill="url(#gold)" stroke="#12082B" stroke-width="7" stroke-linejoin="round"/>
    <ellipse cx="50" cy="38" rx="14" ry="7" fill="#fff" opacity=".5"/>
  </g>
</svg>
